# xmcd
#
# Track frame offsets: 
#        150
#        15435
#        27557
#        38940
#        54050
#        66387
#        80802
#        94010
#        106400
#        120835
#        134550
#        148180
#        160777
#        173417
#        186767
#        200617
#
# Disc length: 2864 seconds
#
# Revision: 0
# Processed by: cddbd v1.5.2PL0 Copyright (c) Steve Scherf et al.
# Submitted via: ExactAudioCopyFreeDBPlugin 1.0
#
DISCID=d60b2e10
DTITLE=Lena Horne - Lena Horne (Masters of Jazz)
DYEAR=1900
DGENRE=Blues
TTITLE0=Stormy weather
TTITLE1=What is this thing called love?
TTITLE2=Ill wind
TTITLE3=The man I love
TTITLE4=Where or when
TTITLE5=I gotta right to sing the blues
TTITLE6=Mad about the boy
TTITLE7=Moanin' low
TTITLE8=You're my thrill
TTITLE9=Haunted town
TTITLE10=St Louis blues
TTITLE11=Careless love
TTITLE12=Aunt Hagar's blues
TTITLE13=Beale Street blues
TTITLE14=Love me a little
TTITLE15=Don't take your love from me
EXTD=
EXTT0=
EXTT1=
EXTT2=
EXTT3=
EXTT4=
EXTT5=
EXTT6=
EXTT7=
EXTT8=
EXTT9=
EXTT10=
EXTT11=
EXTT12=
EXTT13=
EXTT14=
EXTT15=
PLAYORDER=
